<svg xmlns="http://www.w3.org/2000/svg" width="24" height="24" viewBox="0 0 24 24" fill="none" stroke="#F59E0B" stroke-width="2" stroke-linecap="round" stroke-linejoin="round">
  <path d="M2 12h2"></path>
  <path d="M20 12h2"></path>
  <path d="M12 2v2"></path>
  <path d="M12 20v2"></path>
  <path d="M19.07 4.93l-1.41 1.41"></path>
  <path d="M6.34 17.66l-1.41 1.41"></path>
  <path d="M4.93 4.93l1.41 1.41"></path>
  <path d="M17.66 17.66l1.41 1.41"></path>
  <circle cx="12" cy="12" r="3"></circle>
  <path d="M8 12a4 4 0 0 0 4 4"></path>
  <path d="M12 8a4 4 0 0 0-4 4"></path>
  <path d="M16 12a4 4 0 0 0-4-4"></path>
  <path d="M12 16a4 4 0 0 0 4-4"></path>
</svg>